<svg xmlns="http://www.w3.org/2000/svg" width="48" height="48" viewbox="0 0 48 48"><g fill="#B85" stroke="#432" stroke-linejoin="round"><path d="M20.7 41.8L9.2 35.1V18.2l11.5 4.8v18.7z M29.2 15.3l12.3 4.7 5.5-10.2-12.8-3.8-4.9 9.2z M41.6 20.1L20.7 23.1 9.2 18.2l20.0-2.8 12.3 4.7z"/><path fill="#CA7" d="M41.6 20.1L20.7 23.1v18.7l20.8-4.2V20.1z M20.7 23.1l20.8-2.9 4.8-5.6-20.1 2.5-5.4 6.1zm8.5-7.7L9.2 18.2l-4.0-9.1 20.3-2.2 3.7 8.5z"/><path d="M20.7 23.1L9.2 18.2.8 10.2l11.3 4.9 8.5 7.9z"/></g></svg>